<?xml version="1.0" encoding="UTF-8"?>
<svg id="_图层_2" data-name="图层 2" xmlns="http://www.w3.org/2000/svg" viewBox="0 0 215.9 223.03">
  <defs>
    <style>
      .cls-1 {
        fill: #cdfe02;
      }
    </style>
  </defs>
  <g id="_图层_1-2" data-name="图层 1">
    <g>
      <g>
        <path class="cls-1" d="M45.38,219.68c-23.17,0-42.02-18.9-42.02-42.12V45.48C3.35,22.25,22.21,3.35,45.39,3.35c4.44,0,8.86,.71,13.15,2.12l118.72,38.85c21.1,6.91,35.28,26.46,35.28,48.67v41.36c0,22.63-15.17,42.85-36.9,49.17l-118.43,34.46c-3.88,1.13-7.86,1.7-11.83,1.7h0Z"/>
        <path d="M45.39,6.71c3.98,0,8.05,.62,12.11,1.95l118.72,38.85c19.67,6.44,32.97,24.79,32.97,45.48v41.36c0,21.28-14.05,40.01-34.49,45.95l-118.43,34.46c-3.66,1.06-7.32,1.57-10.9,1.57-20.67,0-38.67-16.76-38.67-38.77V45.48C6.71,23.39,24.79,6.71,45.39,6.71m0-6.71C20.36,0,0,20.4,0,45.48V177.56c0,25.07,20.36,45.47,45.38,45.47,4.29,0,8.59-.62,12.77-1.83l118.43-34.46c11.43-3.33,21.25-10.12,28.4-19.64s10.92-20.85,10.92-32.75v-41.36c0-23.66-15.11-44.5-37.59-51.86L59.58,2.28c-4.63-1.51-9.4-2.28-14.2-2.28h0Z"/>
      </g>
      <ellipse cx="67.49" cy="87.22" rx="15.73" ry="18.59"/>
      <path d="M161.35,135.83c-8.31,20.67-25.03,34.43-52.62,34.43s-44.31-13.77-52.62-34.43c-3.15-7.83,5.31-15.19,12.75-11.19,11.71,6.29,25.33,9.9,39.88,9.9s28.17-3.61,39.88-9.9c7.43-3.99,15.89,3.36,12.75,11.19Z"/>
      <ellipse cx="147.97" cy="87.22" rx="15.73" ry="18.59"/>
    </g>
  </g>
</svg>